<?xml version="1.0" standalone="no"?>
<!DOCTYPE svg PUBLIC "-//W3C//DTD SVG 20010904//EN"
 "http://www.w3.org/TR/2001/REC-SVG-20010904/DTD/svg10.dtd">
<svg version="1.0" xmlns="http://www.w3.org/2000/svg"
 width="329.000000pt" height="111.000000pt" viewBox="0 0 329.000000 111.000000"
 preserveAspectRatio="xMidYMid meet">
<metadata>
Created by potrace 1.15, written by Peter Selinger 2001-2017
</metadata>
<g transform="translate(0.000000,111.000000) scale(0.100000,-0.100000)"
fill="#000000" stroke="none">
<path d="M1131 945 c-100 -22 -185 -66 -220 -116 -17 -23 -31 -48 -31 -54 0
-7 -16 -52 -36 -101 -71 -178 -94 -346 -55 -410 45 -74 160 -109 326 -101 171
8 296 60 337 140 26 51 83 219 102 302 44 187 44 204 -6 261 -36 41 -74 62
-143 80 -63 17 -191 16 -274 -1z m183 -157 c34 -15 39 -36 26 -105 -28 -153
-102 -326 -150 -350 -14 -7 -53 -13 -87 -13 -51 0 -66 4 -83 22 -25 27 -25 32
5 151 32 124 80 249 104 271 37 34 137 47 185 24z"/>
<path d="M2680 945 c-81 -19 -183 -68 -209 -101 -28 -36 -98 -219 -128 -334
-19 -72 -23 -112 -20 -165 5 -68 6 -71 50 -111 62 -56 113 -69 272 -69 169 1
244 24 320 100 47 46 54 60 93 180 24 72 52 178 64 236 19 91 20 110 9 137
-19 46 -58 81 -121 110 -46 22 -72 26 -160 28 -66 2 -129 -2 -170 -11z m184
-157 c32 -14 39 -37 31 -91 -11 -72 -65 -239 -97 -299 -35 -65 -59 -78 -149
-78 -46 0 -64 5 -79 20 -24 24 -24 27 -5 110 48 204 100 316 155 336 45 16
112 17 144 2z"/>
<path d="M288 938 c-8 -7 -25 -47 -38 -88 -12 -41 -39 -129 -60 -195 -78 -244
-89 -334 -48 -406 37 -67 65 -74 283 -74 105 0 206 3 225 8 35 7 36 9 59 92
14 47 22 88 19 91 -4 3 -51 0 -105 -7 -112 -13 -225 -5 -248 18 -8 8 -15 27
-15 43 0 15 32 135 71 265 39 130 68 243 65 251 -7 19 -185 20 -208 2z"/>
<path d="M1899 940 c-126 -21 -199 -115 -279 -360 -26 -79 -30 -107 -30 -199
0 -96 3 -112 23 -141 12 -19 38 -43 57 -54 33 -20 50 -21 263 -20 151 1 232 5
239 12 15 15 119 332 112 343 -7 11 -194 12 -212 1 -7 -5 -25 -44 -40 -88
l-27 -79 -71 -3 c-109 -4 -118 12 -88 155 15 75 70 203 100 233 12 12 53 16
196 20 l182 5 24 78 c13 43 21 85 18 93 -4 11 -42 14 -213 13 -114 -1 -229 -5
-254 -9z"/>
</g>
</svg>
